<mxfile host="65bd71144e">
    <diagram id="3QH7mqmX88pSAZPSYPZW" name="Page-1">
        <mxGraphModel dx="1064" dy="486" grid="1" gridSize="10" guides="1" tooltips="1" connect="1" arrows="1" fold="1" page="1" pageScale="1" pageWidth="827" pageHeight="1169" math="0" shadow="0">
            <root>
                <mxCell id="0"/>
                <mxCell id="1" parent="0"/>
                <mxCell id="22" value="" style="rounded=1;whiteSpace=wrap;html=1;fillColor=#f8cecc;strokeColor=#b85450;" vertex="1" parent="1">
                    <mxGeometry x="110" y="180" width="680" height="80" as="geometry"/>
                </mxCell>
                <mxCell id="6" style="edgeStyle=none;html=1;" parent="1" source="2" target="3" edge="1">
                    <mxGeometry relative="1" as="geometry"/>
                </mxCell>
                <mxCell id="2" value="Promela Manager Model" style="rounded=0;whiteSpace=wrap;html=1;" parent="1" vertex="1">
                    <mxGeometry x="120" y="190" width="120" height="60" as="geometry"/>
                </mxCell>
                <mxCell id="9" style="edgeStyle=none;html=1;" parent="1" source="3" target="5" edge="1">
                    <mxGeometry relative="1" as="geometry"/>
                </mxCell>
                <mxCell id="3" value="Standardised Observation language" style="rounded=0;whiteSpace=wrap;html=1;" parent="1" vertex="1">
                    <mxGeometry x="390" y="190" width="120" height="60" as="geometry"/>
                </mxCell>
                <mxCell id="10" value="Refines" style="edgeStyle=none;html=1;" parent="1" source="4" edge="1">
                    <mxGeometry x="-0.5385" relative="1" as="geometry">
                        <mxPoint x="660" y="220" as="targetPoint"/>
                        <Array as="points">
                            <mxPoint x="580" y="220"/>
                        </Array>
                        <mxPoint as="offset"/>
                    </mxGeometry>
                </mxCell>
                <mxCell id="4" value="Testbuilder.py (refinement)" style="rounded=0;whiteSpace=wrap;html=1;" parent="1" vertex="1">
                    <mxGeometry x="520" y="110" width="120" height="60" as="geometry"/>
                </mxCell>
                <mxCell id="5" value="RTEMS C Testcode" style="rounded=0;whiteSpace=wrap;html=1;" parent="1" vertex="1">
                    <mxGeometry x="660" y="190" width="120" height="60" as="geometry"/>
                </mxCell>
                <mxCell id="8" value="Run by" style="edgeStyle=none;html=1;entryX=0;entryY=0.5;entryDx=0;entryDy=0;" parent="1" source="7" target="3" edge="1">
                    <mxGeometry x="-0.5385" relative="1" as="geometry">
                        <Array as="points">
                            <mxPoint x="310" y="220"/>
                        </Array>
                        <mxPoint as="offset"/>
                    </mxGeometry>
                </mxCell>
                <mxCell id="7" value="Testbuilder.py (SPIN)" style="rounded=0;whiteSpace=wrap;html=1;" parent="1" vertex="1">
                    <mxGeometry x="250" y="110" width="120" height="60" as="geometry"/>
                </mxCell>
                <mxCell id="12" value="Used By" style="edgeStyle=none;html=1;" parent="1" source="11" target="7" edge="1">
                    <mxGeometry x="0.6689" relative="1" as="geometry">
                        <Array as="points">
                            <mxPoint x="310" y="70"/>
                        </Array>
                        <mxPoint as="offset"/>
                    </mxGeometry>
                </mxCell>
                <mxCell id="13" value="Used By" style="edgeStyle=none;html=1;" parent="1" source="11" target="4" edge="1">
                    <mxGeometry x="0.6391" relative="1" as="geometry">
                        <Array as="points">
                            <mxPoint x="580" y="70"/>
                        </Array>
                        <mxPoint as="offset"/>
                    </mxGeometry>
                </mxCell>
                <mxCell id="11" value="RTEMS install (Tools, Environment)" style="rounded=0;whiteSpace=wrap;html=1;" parent="1" vertex="1">
                    <mxGeometry x="390" y="20" width="120" height="60" as="geometry"/>
                </mxCell>
                <mxCell id="15" value="Contributes to refinement" style="edgeStyle=none;html=1;entryX=0;entryY=0.5;entryDx=0;entryDy=0;" parent="1" source="14" target="5" edge="1">
                    <mxGeometry x="-0.5714" relative="1" as="geometry">
                        <Array as="points">
                            <mxPoint x="580" y="220"/>
                        </Array>
                        <mxPoint as="offset"/>
                    </mxGeometry>
                </mxCell>
                <mxCell id="14" value="mgr-rfn.yml, mgr-pre.h, mgr-post.h, mgr-run.h" style="rounded=0;whiteSpace=wrap;html=1;" parent="1" vertex="1">
                    <mxGeometry x="520" y="280" width="120" height="60" as="geometry"/>
                </mxCell>
                <mxCell id="17" value="Provides" style="edgeStyle=none;html=1;" parent="1" source="16" target="14" edge="1">
                    <mxGeometry relative="1" as="geometry">
                        <mxPoint as="offset"/>
                    </mxGeometry>
                </mxCell>
                <mxCell id="18" value="Provides" style="edgeStyle=none;html=1;" parent="1" source="16" target="2" edge="1">
                    <mxGeometry x="0.9184" relative="1" as="geometry">
                        <Array as="points">
                            <mxPoint x="180" y="400"/>
                        </Array>
                        <mxPoint as="offset"/>
                    </mxGeometry>
                </mxCell>
                <mxCell id="19" value="Provides" style="edgeStyle=none;html=1;" parent="1" source="16" target="7" edge="1">
                    <mxGeometry x="0.907" relative="1" as="geometry">
                        <Array as="points">
                            <mxPoint x="90" y="410"/>
                            <mxPoint x="90" y="140"/>
                        </Array>
                        <mxPoint as="offset"/>
                    </mxGeometry>
                </mxCell>
                <mxCell id="20" value="Provides" style="edgeStyle=none;html=1;" parent="1" source="16" target="4" edge="1">
                    <mxGeometry x="0.8644" relative="1" as="geometry">
                        <Array as="points">
                            <mxPoint x="800" y="410"/>
                            <mxPoint x="800" y="140"/>
                        </Array>
                        <mxPoint as="offset"/>
                    </mxGeometry>
                </mxCell>
                <mxCell id="16" value="RTEMS-SMP-Formal" style="rounded=0;whiteSpace=wrap;html=1;" parent="1" vertex="1">
                    <mxGeometry x="520" y="380" width="120" height="60" as="geometry"/>
                </mxCell>
            </root>
        </mxGraphModel>
    </diagram>
</mxfile>